<svg width="874" height="874" viewBox="0 0 874 874" fill="none" xmlns="http://www.w3.org/2000/svg">
<path d="M14.4338 462C5.50213 446.53 5.50213 427.47 14.4338 412L204.066 83.5469C212.998 68.0768 229.504 58.5469 247.368 58.5469H626.632C644.496 58.5469 661.002 68.0768 669.934 83.5469L859.566 412C868.498 427.47 868.498 446.53 859.566 462L669.934 790.453C661.002 805.923 644.496 815.453 626.632 815.453H247.368C229.504 815.453 212.998 805.923 204.066 790.453L14.4338 462Z" fill="#6DB23E"/>
<path d="M450 212C336.229 212 244 304.229 244 418C244 531.771 336.229 624 450 624C508.083 624 560.552 599.961 598 561.29C609.978 548.921 610.903 549.555 619.5 534.5" stroke="white" stroke-width="80"/>
<path d="M635 510H466C449.984 510 437 522.984 437 539C437 555.016 449.984 568 466 568H635C651.016 568 664 555.016 664 539C664 522.984 651.016 510 635 510Z" fill="#C5E1A6"/>
<path d="M244 711C244 672.34 275.34 641 314 641H559C597.66 641 629 672.34 629 711V720C629 722.761 626.761 725 624 725H249C246.239 725 244 722.761 244 720V711Z" fill="#C5E1A6"/>
<path d="M447.861 149.499C440.374 129.009 417.694 118.468 397.204 125.955C376.714 133.442 366.172 156.122 373.659 176.612L425.139 317.501C432.626 337.992 455.306 348.533 475.796 341.046C496.287 333.559 506.828 310.879 499.341 290.389L447.861 149.499Z" fill="#DDE673"/>
<path d="M495.179 472.703C489.581 471.258 478.383 463.275 476.216 440.736C474.049 418.197 488.678 403.405 497.347 396.85C504.751 391.252 519.019 382.222 557.487 382.222C586.744 382.222 614.556 359.827 626.295 345.921L633.339 335.627C638.215 348.63 646.884 380.596 647.967 393.058C649.563 411.41 651.304 434.235 636.59 457.532C623.586 478.121 594.871 485.706 572.657 485.706H508.724C526.784 481.191 566.155 467.826 585.118 452.114C607.951 433.196 617.454 411.868 623.424 393.558C621.699 398.624 615.196 411.2 601.373 425.024C587.069 439.328 566.155 451.211 557.487 455.365C540.149 463.672 508.616 471.402 495.179 472.703Z" fill="white"/>
<path d="M495.179 472.703C489.581 471.258 478.383 463.275 476.216 440.736C474.049 418.197 488.678 403.405 497.347 396.85C504.751 391.252 519.019 382.222 557.487 382.222C586.744 382.222 614.556 359.827 626.295 345.921L633.339 335.627C638.215 348.63 646.884 380.596 647.967 393.058C649.563 411.41 651.304 434.235 636.59 457.532C623.586 478.121 594.871 485.706 572.657 485.706H508.724C526.784 481.191 566.155 467.826 585.118 452.114C608.159 433.023 617.627 411.479 623.586 393.058C622.142 397.753 615.676 410.72 601.373 425.024C587.069 439.328 566.155 451.211 557.487 455.365C540.149 463.672 508.616 471.402 495.179 472.703Z" stroke="white" stroke-linecap="round" stroke-linejoin="round"/>
<path d="M485.752 496C490.54 496 494.421 492.119 494.421 487.331C494.421 482.543 490.54 478.662 485.752 478.662C480.964 478.662 477.083 482.543 477.083 487.331C477.083 492.119 480.964 496 485.752 496Z" fill="white"/>
</svg>
